<?xml version="1.0" encoding="UTF-8" standalone="no"?>
<svg width="91px" height="16px" viewBox="0 0 91 16" version="1.1" xmlns="http://www.w3.org/2000/svg" xmlns:xlink="http://www.w3.org/1999/xlink" xmlns:sketch="http://www.bohemiancoding.com/sketch/ns">
    <!-- Generator: Sketch 3.3.3 (12081) - http://www.bohemiancoding.com/sketch -->
    <title>Logo Copy</title>
    <desc>Created with Sketch.</desc>
    <defs></defs>
    <g id="Page-1" stroke="none" stroke-width="1" fill="none" fill-rule="evenodd" sketch:type="MSPage">
        <g id="User-Profiles-Detail-Copy" sketch:type="MSArtboardGroup" transform="translate(-20.000000, -758.000000)">
            <g id="Logo-Copy" sketch:type="MSLayerGroup" transform="translate(20.000000, 758.000000)">
                <path d="M12.4205993,2.68027597 C11.154146,1.35642857 9.422085,0.558226461 7.50378084,0.558226461 C3.64854821,0.558226461 0.519663762,3.82890828 0.519663762,7.85885552 C0.519663762,11.8888028 3.64854821,15.1594846 7.50378084,15.1594846 C9.44070931,15.1594846 11.1913947,14.3223458 12.4578479,12.9984984 L9.85044418,10.3118669 C9.2730905,10.9348539 8.45362076,11.2852841 7.50378084,11.2852841 C5.604101,11.2852841 4.22590189,9.84462662 4.22590189,7.85885552 C4.22590189,5.87308442 5.604101,4.43242695 7.50378084,4.43242695 C8.45362076,4.43242695 9.2730905,4.78285714 9.85044418,5.38637581 L12.4205993,2.68027597 Z M13.3784299,7.90206575 C13.3784299,11.932013 16.48869,15.1832265 20.3439226,15.1832265 C24.1991553,15.1832265 27.3280397,11.932013 27.3280397,7.90206575 C27.3280397,3.87211851 24.1991553,0.581968344 20.3439226,0.581968344 C16.48869,0.581968344 13.3784299,3.87211851 13.3784299,7.90206575 L13.3784299,7.90206575 Z M23.6776745,7.8825974 C23.6776745,9.79049513 22.1877296,11.367431 20.3439226,11.367431 C18.5187401,11.367431 17.0287951,9.79049513 17.0287951,7.8825974 C17.0287951,5.95523133 18.5187401,4.3977638 20.3439226,4.3977638 C22.1877296,4.3977638 23.6776745,5.95523133 23.6776745,7.8825974 L23.6776745,7.8825974 Z M32.8967091,0.581968344 L29.2090953,0.581968344 L29.2090953,9.42059659 C29.2090953,12.6328734 31.6488802,15.1832265 34.7218917,15.1832265 C37.7576546,15.1832265 40.2346881,12.6328734 40.2346881,9.42059659 L40.2346881,0.581968344 L36.5470743,0.581968344 L36.5470743,9.36219156 C36.5470743,10.4134821 35.7276045,11.2700893 34.7218917,11.2700893 C33.7161788,11.2700893 32.8967091,10.4134821 32.8967091,9.36219156 L32.8967091,0.581968344 Z M53.4489473,15.1832265 L53.4489473,0.581968344 L49.7799578,0.581968344 L49.7799578,7.47376218 L45.3095034,0.581968344 L42.7489702,0.581968344 L42.7489702,15.1832265 L46.4179597,15.1832265 L46.4179597,8.27196429 L50.8697898,15.1832265 L53.4489473,15.1832265 Z M55.6838648,4.37829545 L59.3156057,4.37829545 L59.3156057,15.1832265 L62.9845952,15.1832265 L62.9845952,4.37829545 L66.6908333,4.37829545 L66.6908333,0.5625 L55.6838648,0.5625 L55.6838648,4.37829545 Z M68.9443751,15.1832265 L77.6419289,15.1832265 L77.6419289,11.3284943 L72.6133646,11.3284943 L72.6133646,0.581968344 L68.9443751,0.581968344 L68.9443751,15.1832265 Z M90.9378398,0.581968344 L86.7101209,0.581968344 L84.0095957,5.44905438 L81.3276947,0.581968344 L77.0999758,0.581968344 L82.2030374,9.80996347 L82.2030374,15.1832265 L85.8347783,15.1832265 L85.8347783,9.80996347 L90.9378398,0.581968344 Z" id="COUNTLY-Copy" fill="#AFB5BA" sketch:type="MSShapeGroup"></path>
                <path d="M19.0312215,8.79112151 L17.1140038,1.50001306 L21.1871155,5.98087433 L19.0312215,8.79112151 L19.0312215,8.79112151 Z" id="Path-272-Copy-2" fill="#273743" sketch:type="MSShapeGroup"></path>
                <circle id="Oval-65-Copy-3" fill="#AFB5BA" sketch:type="MSShapeGroup" cx="20.4000015" cy="7.90002441" r="2"></circle>
            </g>
        </g>
    </g>
</svg>