<?xml version="1.0" encoding="UTF-8" standalone="no"?>
<svg width="18px" height="14px" viewBox="0 0 18 14" version="1.1" xmlns="http://www.w3.org/2000/svg" xmlns:xlink="http://www.w3.org/1999/xlink" xmlns:sketch="http://www.bohemiancoding.com/sketch/ns">
    <!-- Generator: Sketch 3.3.3 (12081) - http://www.bohemiancoding.com/sketch -->
    <title>Group Copy 3 + Rectangle 64 + Star 2 Copy Copy Copy Copy</title>
    <desc>Created with Sketch.</desc>
    <defs></defs>
    <g id="Page-1" stroke="none" stroke-width="1" fill="none" fill-rule="evenodd" sketch:type="MSPage">
        <g id="Artboard-2" sketch:type="MSArtboardGroup" transform="translate(-759.000000, -221.000000)" fill="#FFFFFF">
            <g id="Group-Copy-3-+-Rectangle-64-+-Star-2-Copy-Copy-Copy-Copy" sketch:type="MSLayerGroup" transform="translate(768.000000, 228.000000) scale(-1, 1) translate(-768.000000, -228.000000) translate(759.000000, 221.000000)">
                <g id="Group-Copy-3-+-Rectangle-64-+-Star-2" sketch:type="MSShapeGroup">
                    <g id="Group-Copy-3" transform="translate(5.000000, 1.000000)">
                        <rect id="Rectangle-11" x="0.5" y="0" width="12" height="1.20000005" rx="40"></rect>
                        <rect id="Rectangle-11-Copy" x="0.5" y="3" width="10" height="1.20000005" rx="40"></rect>
                        <rect id="Rectangle-11-Copy-2" x="0.5" y="6" width="8" height="1.20000005" rx="40"></rect>
                        <path d="M2.46536331,9.58144223 C2.65017805,9.30422011 3.0728302,9.07948718 3.40189552,9.07948718 L5.39810448,9.07948718 C5.7305222,9.07948718 6,9.3578075 6,9.6794872 L6,9.6794872 C6,10.0108581 5.73754883,10.2794872 5.40978622,10.2794872 L2.59021378,10.2794872 C2.26424771,10.2794872 2.15424805,10.0481151 2.33463669,9.77753217 L2.46536331,9.58144223 Z" id="Rectangle-11-Copy-3"></path>
                    </g>
                    <g id="Rectangle-64-+-Star-2">
                        <rect id="Rectangle-64" x="2.2" y="0" width="1.20000005" height="11"></rect>
                        <polygon id="Star-2" transform="translate(2.800000, 11.567897) scale(1, -1) translate(-2.800000, -11.567897) " points="0.0349364816 13.1204101 2.8 9.83579474 5.56506352 13.1204101 "></polygon>
                    </g>
                </g>
            </g>
        </g>
    </g>
</svg>