<?xml version="1.0" encoding="UTF-8" standalone="no"?>
<svg width="19px" height="18px" viewBox="-1 -1 18 17" version="1.1" xmlns="http://www.w3.org/2000/svg" xmlns:xlink="http://www.w3.org/1999/xlink" xmlns:sketch="http://www.bohemiancoding.com/sketch/ns">
    <!-- Generator: Sketch 3.5.1 (25234) - http://www.bohemiancoding.com/sketch -->
    <title>Engagement Copy 6 + Path 77 Copy 2</title>
    <desc>Created with Sketch.</desc>
    <defs></defs>
    <g id="Page-1" stroke="none" stroke-width="1" fill="none" fill-rule="evenodd" sketch:type="MSPage">
        <g id="Ikony-Copy" sketch:type="MSArtboardGroup" transform="translate(-392.000000, -360.000000)" stroke="#FFFFFF">
            <g id="Group" sketch:type="MSLayerGroup" transform="translate(384.000000, 49.000000)">
                <g id="Engagement-Copy-6-+-Path-77-Copy-2" transform="translate(8.000000, 311.000000)" sketch:type="MSShapeGroup">
                    <g id="Engagement-Copy-6" stroke-width="1.20000005" fill="#FFFFFF" fill-opacity="0">
                        <path d="M7.72262256,14.8523656 C1.64583579,9.18269918 0,8.07578321 0,4.83388592 C0,2.16848231 1.89297106,0 4.21972829,0 C6.16420555,0 7.26331955,1.26503823 8,2.21665877 C8.73668045,1.26503823 9.83579445,0 11.7802717,0 C14.1070289,0 16,2.16848231 16,4.83388592 C16,8.07578321 14.3541642,9.18269918 8.27737744,14.8523656 L8,15.1111111 L7.72262256,14.8523656 Z" id="Fill-18-Copy"></path>
                    </g>
                    <path d="M5.91566265,7.8 C5.91566265,7.8 6.92771084,8.8 8.44578313,8.8 C9.96385542,8.8 11.0011419,7.8 11.0011419,7.8" id="Path-77-Copy" stroke="#FFFFFF"></path>
                </g>
            </g>
        </g>
    </g>
</svg>
