<?xml version="1.0" encoding="UTF-8" standalone="no"?>
<svg width="19px" height="18px" viewBox="-1 -1 18 17" version="1.1" xmlns="http://www.w3.org/2000/svg" xmlns:xlink="http://www.w3.org/1999/xlink" xmlns:sketch="http://www.bohemiancoding.com/sketch/ns">
    <!-- Generator: Sketch 3.5.1 (25234) - http://www.bohemiancoding.com/sketch -->
    <title>Engagement Copy 3 + Path 77 Copy</title>
    <desc>Created with Sketch.</desc>
    <defs></defs>
    <g id="Page-1" stroke="none" stroke-width="1" fill="none" fill-rule="evenodd" sketch:type="MSPage">
        <g id="Ikony-Copy" sketch:type="MSArtboardGroup" transform="translate(-467.000000, -360.000000)">
            <g id="Group" sketch:type="MSLayerGroup" transform="translate(438.000000, 18.000000)">
                <g id="Engagement-Copy-3-+-Path-77-Copy" transform="translate(29.000000, 342.000000)" sketch:type="MSShapeGroup">
                    <g id="Engagement-Copy-3" transform="translate(0.349398, 0.000000)" stroke="#18CC63" stroke-width="1.20000005" fill="#FFFFFF" fill-opacity="0">
                        <path d="M7.81566621,14.8523656 C1.66566514,9.18269918 0,8.07578321 0,4.83388592 C0,2.16848231 1.91577794,0 4.27056839,0 C6.23847309,0 7.35082943,1.26503823 8.09638554,2.21665877 C8.84194166,1.26503823 9.954298,0 11.9222027,0 C14.2769931,0 16.1927711,2.16848231 16.1927711,4.83388592 C16.1927711,8.07578321 14.5271059,9.18269918 8.37710488,14.8523656 L8.09638554,15.1111111 L7.81566621,14.8523656 Z" id="Fill-18-Copy"></path>
                    </g>
                    <path d="M5.91566265,7.8 C5.91566265,7.8 6.92771084,8.8 8.44578313,8.8 C9.96385542,8.8 11.0011419,7.8 11.0011419,7.8" id="Path-77-Copy" stroke="#FFFFFF"></path>
                </g>
            </g>
        </g>
    </g>
</svg>
