<?xml version="1.0" encoding="UTF-8" standalone="no"?>
<svg width="18px" height="21px" viewBox="0 -3 18 21" version="1.1" xmlns="http://www.w3.org/2000/svg" xmlns:xlink="http://www.w3.org/1999/xlink" xmlns:sketch="http://www.bohemiancoding.com/sketch/ns">
    <!-- Generator: Sketch 3.3.3 (12081) - http://www.bohemiancoding.com/sketch -->
    <title>Engagement + Oval 74 + Oval 74 Copy 2</title>
    <desc>Created with Sketch.</desc>
    <defs></defs>
    <g id="Page-1" stroke="none" stroke-width="1" fill="none" fill-rule="evenodd" sketch:type="MSPage">
        <g id="Ikony-Copy" sketch:type="MSArtboardGroup" transform="translate(-314.000000, -120.000000)" stroke="#B8BFC4">
            <g id="Group" sketch:type="MSLayerGroup" transform="translate(303.000000, 49.000000)">
                <g id="Engagement-+-Oval-74-+-Oval-74-Copy-2" transform="translate(11.000000, 71.000000)" sketch:type="MSShapeGroup">
                    <g id="Engagement" transform="translate(0.000000, 4.000000)" stroke-width="1.20000005" stroke-linecap="round" stroke-linejoin="round">
                        <path d="M0.609022556,0.615384615 C0.609022556,0.615384615 0.762202164,0.790684436 0.838791969,0.878334347 C2.99528487,3.34623999 7.30827068,8.28205128 7.30827068,8.28205128 L7.30827068,13 L10.3533835,13" id="Path-7"></path>
                        <path d="M10.3533835,0.615384615 L17.0526316,8.28205128 L17.0526316,13" id="Path-7-Copy" transform="translate(13.703008, 6.807692) scale(-1, 1) translate(-13.703008, -6.807692) "></path>
                        <path d="M0.609022556,0.600000024 L17.0526316,0.600000024" id="Path-8"></path>
                    </g>
                    <g id="Oval-74-+-Oval-74-Copy-2" transform="translate(3.000000, 0.000000)">
                        <path d="M0.506471413,4.66858983 C0.756680552,5.04176075 1.74165279,4.93778658 2.7780165,4.95791937 C3.97148408,4.98110411 5.23310511,5.07102604 5.51923592,4.62959724 C5.82338308,4.1603737 6,3.6008124 6,3 C6,1.34314575 4.65685425,0 3,0 C1.34314575,0 0,1.34314575 0,3 C0,3.61754512 0.186591528,4.19150946 0.506471413,4.66858983 Z" id="Oval-74"></path>
                        <path d="M8,4.69999997 L10,4.4 L8,2.4 L6,4.4 L8,4.69999997 Z" id="Oval-74-Copy"></path>
                    </g>
                </g>
            </g>
        </g>
    </g>
</svg>
