<?xml version="1.0" encoding="UTF-8" standalone="no"?>
<svg width="18px" height="21px" viewBox="0 -3 18 21" version="1.1" xmlns="http://www.w3.org/2000/svg" xmlns:xlink="http://www.w3.org/1999/xlink" xmlns:sketch="http://www.bohemiancoding.com/sketch/ns">
    <!-- Generator: Sketch 3.3.3 (12081) - http://www.bohemiancoding.com/sketch -->
    <title>Engagement Copy 4</title>
    <desc>Created with Sketch.</desc>
    <defs></defs>
    <g id="Page-1" stroke="none" stroke-width="1" fill="none" fill-rule="evenodd" sketch:type="MSPage">
        <g id="Ikony-Copy" sketch:type="MSArtboardGroup" transform="translate(-466.000000, -120.000000)">
            <g id="Group" sketch:type="MSLayerGroup" transform="translate(438.000000, 18.000000)">
                <g id="Engagement-Copy-4" transform="translate(28.337349, 102.000000)" sketch:type="MSShapeGroup">
                    <g id="Oval-74-+-Oval-74-Copy" transform="translate(3.036145, 0.000000)" stroke="#FFFFFF">
                        <path d="M0.512573478,4.66858983 C0.765797185,5.04176075 1.76263656,4.93778658 2.81148658,4.95791937 C4.01933328,4.98110411 5.29615456,5.07102604 5.58573274,4.62959724 C5.89354432,4.1603737 6.07228916,3.6008124 6.07228916,3 C6.07228916,1.34314575 4.71296093,0 3.03614458,0 C1.35932823,0 0,1.34314575 0,3 C0,3.61754512 0.188839619,4.19150946 0.512573478,4.66858983 Z" id="Oval-74"></path>
                        <path d="M8.09638554,4.69999997 L10.1204819,4.4 L8.09638554,2.4 L6.07228916,4.4 L8.09638554,4.69999997 Z" id="Oval-74-Copy"></path>
                    </g>
                    <path d="M0.616360178,4.61538462 C0.616360178,4.61538462 0.771385323,4.79068444 0.848897896,4.87833435 C3.03137264,7.34623999 7.39632213,12.2820513 7.39632213,12.2820513 L7.39632213,17 L10.478123,17" id="Path-7" stroke="#18CC63" stroke-width="1.20000005" stroke-linecap="round" stroke-linejoin="round"></path>
                    <path d="M10.478123,4.61538462 L17.258085,12.2820513 L17.258085,17" id="Path-7-Copy" stroke="#18CC63" stroke-width="1.20000005" stroke-linecap="round" stroke-linejoin="round" transform="translate(13.868104, 10.807692) scale(-1, 1) translate(-13.868104, -10.807692) "></path>
                    <path d="M0.616360178,4.60000002 L17.258085,4.60000002" id="Path-8" stroke="#18CC63" stroke-width="1.20000005" stroke-linecap="round" stroke-linejoin="round"></path>
                </g>
            </g>
        </g>
    </g>
</svg>
