<?xml version="1.0" encoding="UTF-8" standalone="no"?>
<svg width="16px" height="16px" viewBox="0 0 16 16" version="1.1" xmlns="http://www.w3.org/2000/svg" xmlns:xlink="http://www.w3.org/1999/xlink" xmlns:sketch="http://www.bohemiancoding.com/sketch/ns">
    <!-- Generator: Sketch 3.3.3 (12081) - http://www.bohemiancoding.com/sketch -->
    <title>Otaznik Copy</title>
    <desc>Created with Sketch.</desc>
    <defs></defs>
    <g id="Page-1" stroke="none" stroke-width="1" fill="none" fill-rule="evenodd" sketch:type="MSPage">
        <g id="User-Profiles-Detail-Copy" sketch:type="MSArtboardGroup" transform="translate(-456.000000, -23.000000)">
            <g id="Otaznik-Copy" sketch:type="MSLayerGroup" transform="translate(456.000000, 23.000000)">
                <circle id="Oval-24" fill="#CCCCCC" sketch:type="MSShapeGroup" cx="8" cy="8" r="8"></circle>
                <path d="M5.31747368,4.06105263 C5.47972011,3.91789402 5.65747272,3.78189538 5.85073684,3.65305263 C6.04400097,3.52420988 6.25277081,3.41207065 6.47705263,3.31663158 C6.70133445,3.22119251 6.94470044,3.14603536 7.20715789,3.09115789 C7.46961535,3.03628043 7.75354233,3.00884211 8.05894737,3.00884211 C8.47410734,3.00884211 8.852279,3.06610469 9.19347368,3.18063158 C9.53466837,3.29515847 9.82694615,3.45859543 10.0703158,3.67094737 C10.3136854,3.88329931 10.5021748,4.13978797 10.6357895,4.44042105 C10.7694042,4.74105413 10.8362105,5.07747182 10.8362105,5.44968421 C10.8362105,5.81235269 10.7837198,6.12610394 10.6787368,6.39094737 C10.5737539,6.6557908 10.4413341,6.88603411 10.2814737,7.08168421 C10.1216132,7.27733431 9.94863251,7.44673613 9.76252632,7.58989474 C9.57642012,7.73305335 9.39986048,7.86785902 9.23284211,7.99431579 C9.06582373,8.12077256 8.92147429,8.2448415 8.79978947,8.36652632 C8.67810465,8.48821113 8.60533345,8.62540275 8.58147368,8.77810526 L8.41684211,9.82315789 L7.20715789,9.82315789 L7.08547368,8.65642105 C7.08070173,8.63256128 7.07831579,8.61228079 7.07831579,8.59557895 L7.07831579,8.53473684 C7.07831579,8.32477088 7.13080649,8.14224639 7.23578947,7.98715789 C7.34077245,7.8320694 7.47199921,7.686527 7.62947368,7.55052632 C7.78694816,7.41452564 7.95634997,7.28210591 8.13768421,7.15326316 C8.31901845,7.02442041 8.48842027,6.88484286 8.64589474,6.73452632 C8.80336921,6.58420977 8.93459597,6.41361499 9.03957895,6.22273684 C9.14456193,6.03185869 9.19705263,5.80758024 9.19705263,5.54989474 C9.19705263,5.3781044 9.16484243,5.22421121 9.10042105,5.08821053 C9.03599968,4.95220985 8.94652689,4.83529873 8.832,4.73747368 C8.71747311,4.63964863 8.5802815,4.56449149 8.42042105,4.512 C8.2605606,4.45950851 8.08757988,4.43326316 7.90147368,4.43326316 C7.62947232,4.43326316 7.39922901,4.46308742 7.21073684,4.52273684 C7.02224467,4.58238626 6.86238662,4.64919261 6.73115789,4.72315789 C6.59992917,4.79712318 6.48898291,4.86392953 6.39831579,4.92357895 C6.30764867,4.98322837 6.22652667,5.01305263 6.15494737,5.01305263 C5.98315704,5.01305263 5.8590881,4.9414744 5.78273684,4.79831579 L5.31747368,4.06105263 Z M6.67031579,11.6581053 C6.67031579,11.5101747 6.69775411,11.3694042 6.75263158,11.2357895 C6.80750905,11.1021748 6.88385916,10.9876496 6.98168421,10.8922105 C7.07950926,10.7967715 7.1952274,10.7204213 7.32884211,10.6631579 C7.46245681,10.6058945 7.60561327,10.5772632 7.75831579,10.5772632 C7.90624635,10.5772632 8.04701688,10.6058945 8.18063158,10.6631579 C8.31424628,10.7204213 8.42877145,10.7967715 8.52421053,10.8922105 C8.6196496,10.9876496 8.69599971,11.1021748 8.75326316,11.2357895 C8.8105266,11.3694042 8.83915789,11.5101747 8.83915789,11.6581053 C8.83915789,11.8108078 8.8105266,11.9527713 8.75326316,12.084 C8.69599971,12.2152287 8.6196496,12.3285609 8.52421053,12.424 C8.42877145,12.5194391 8.31424628,12.5945962 8.18063158,12.6494737 C8.04701688,12.7043512 7.90624635,12.7317895 7.75831579,12.7317895 C7.60561327,12.7317895 7.46245681,12.7043512 7.32884211,12.6494737 C7.1952274,12.5945962 7.07950926,12.5194391 6.98168421,12.424 C6.88385916,12.3285609 6.80750905,12.2152287 6.75263158,12.084 C6.69775411,11.9527713 6.67031579,11.8108078 6.67031579,11.6581053 L6.67031579,11.6581053 Z" id="?" fill="#FFFFFF" sketch:type="MSShapeGroup"></path>
            </g>
        </g>
    </g>
</svg>