<?xml version="1.0" encoding="UTF-8" standalone="no"?>
<svg width="18px" height="18px" viewBox="0 0 18 18" version="1.1" xmlns="http://www.w3.org/2000/svg" xmlns:xlink="http://www.w3.org/1999/xlink" xmlns:sketch="http://www.bohemiancoding.com/sketch/ns">
    <!-- Generator: Sketch 3.5.1 (25234) - http://www.bohemiancoding.com/sketch -->
    <title>Management</title>
    <desc>Created with Sketch.</desc>
    <defs></defs>
    <g id="Page-1" stroke="none" stroke-width="1" fill="none" fill-rule="evenodd" sketch:type="MSPage">
        <g id="Ikony-Copy" sketch:type="MSArtboardGroup" transform="translate(-316.000000, -519.000000)">
            <g id="Group" sketch:type="MSLayerGroup" transform="translate(303.000000, 49.000000)">
                <g id="Management" transform="translate(10.000000, 467.000000)" sketch:type="MSShapeGroup">
                    <path d="M12,15.5 C10.0701008,15.5 8.5,13.9298992 8.5,12 C8.5,10.0701008 10.0701008,8.5 12,8.5 C13.9298992,8.5 15.5,10.0701008 15.5,12 C15.5,13.9298992 13.9298992,15.5 12,15.5 L12,15.5 Z" id="Fill-45" stroke="#FFFFFF" stroke-width="1.20000005"></path>
                    <path d="M13.2315789,20.9336842 L10.7021053,20.9336842 L9.97215789,18.7452632 C9.48947368,18.6036316 9.02431579,18.4108421 8.58331579,18.1702105 L6.52089474,19.2014211 L4.73178947,17.4127895 L5.76347368,15.3498947 C5.52284211,14.9098421 5.33052632,14.4446842 5.18842105,13.9610526 L3,13.2315789 L3,10.7021053 L5.18842105,9.97263158 C5.33052632,9.489 5.52284211,9.02384211 5.76347368,8.58378947 L4.73178947,6.52089474 L6.52089474,4.73178947 L8.58331579,5.76347368 C9.02431579,5.52284211 9.48947368,5.33005263 9.97215789,5.18842105 L10.7021053,3 L13.2315789,3 L13.9615263,5.18842105 C14.4437368,5.33005263 14.9093684,5.52284211 15.3503684,5.76347368 L17.4127895,4.73178947 L19.2018947,6.52089474 L18.1702105,8.58378947 C18.4108421,9.02384211 18.6031579,9.489 18.7452632,9.97263158 L20.9336842,10.7021053 L20.9336842,13.2315789 L18.7452632,13.9610526 C18.6031579,14.4446842 18.4108421,14.9098421 18.1702105,15.3498947 L19.2018947,17.4127895 L17.4127895,19.2014211 L15.3503684,18.1702105 C14.9093684,18.4108421 14.4437368,18.6036316 13.9615263,18.7452632 L13.2315789,20.9336842 L13.2315789,20.9336842 Z M11.3368421,20.0526316 L12.5968421,20.0526316 L13.2761053,18.0157895 L13.5082105,17.9561053 C14.0723684,17.8111579 14.6123684,17.5880526 15.1125789,17.292 L15.3191053,17.1697895 L17.2389474,18.1299474 L18.1299474,17.2389474 L17.1693158,15.3191053 L17.292,15.1121053 C17.5871053,14.6133158 17.8106842,14.0737895 17.9565789,13.5077368 L18.0157895,13.2756316 L20.0526316,12.5968421 L20.0526316,11.3368421 L18.0157895,10.6580526 L17.9565789,10.4259474 C17.8106842,9.85989474 17.5871053,9.32036842 17.292,8.82157895 L17.1693158,8.61457895 L18.1299474,6.69473684 L17.2389474,5.80373684 L15.3191053,6.76389474 L15.1125789,6.64168421 C14.6123684,6.34563158 14.0723684,6.12252632 13.5082105,5.97757895 L13.2761053,5.91789474 L12.5968421,3.88105263 L11.3368421,3.88105263 L10.6575789,5.91789474 L10.4254737,5.97757895 C9.86131579,6.12252632 9.32131579,6.34563158 8.82110526,6.64168421 L8.61457895,6.76389474 L6.69473684,5.80373684 L5.80373684,6.69473684 L6.76436842,8.61457895 L6.64168421,8.82157895 C6.34657895,9.32036842 6.123,9.85989474 5.97710526,10.4259474 L5.91742105,10.6580526 L3.88105263,11.3368421 L3.88105263,12.5968421 L5.91742105,13.2756316 L5.97710526,13.5077368 C6.123,14.0737895 6.34657895,14.6133158 6.64168421,15.1121053 L6.76436842,15.3191053 L5.80373684,17.2389474 L6.69473684,18.1299474 L8.61457895,17.1697895 L8.82110526,17.292 C9.32131579,17.5880526 9.86131579,17.8111579 10.4254737,17.9561053 L10.6575789,18.0157895 L11.3368421,20.0526316 L11.3368421,20.0526316 Z" id="Fill-46" fill="#FFFFFF" transform="translate(11.966842, 11.966842) rotate(-22.500000) translate(-11.966842, -11.966842) "></path>
                </g>
            </g>
        </g>
    </g>
</svg>