<?xml version="1.0" encoding="UTF-8" standalone="no"?>
<svg width="20px" height="18px" viewBox="0 0 18 18" version="1.1" xmlns="http://www.w3.org/2000/svg" xmlns:xlink="http://www.w3.org/1999/xlink" xmlns:sketch="http://www.bohemiancoding.com/sketch/ns">
    <!-- Generator: Sketch 3.3.3 (12081) - http://www.bohemiancoding.com/sketch -->
    <title>Messaging</title>
    <desc>Created with Sketch.</desc>
    <defs></defs>
    <g id="Page-1" stroke="none" stroke-width="1" fill="none" fill-rule="evenodd" sketch:type="MSPage">
        <g id="Ikony-Copy" sketch:type="MSArtboardGroup" transform="translate(-314.000000, -241.000000)">
            <g id="Group" sketch:type="MSLayerGroup" transform="translate(303.000000, 49.000000)">
                <g id="Messaging" transform="translate(11.000000, 192.000000)" sketch:type="MSShapeGroup">
                    <path d="M15.3529412,13.2003221 L16.0049107,13.2003221 C17.1073772,13.2003221 18,12.3027225 18,11.1954773 L18,2.0048448 C18,0.886607529 17.1067681,0 16.0049107,0 L1.99508929,0 C0.892622799,0 0,0.897599591 0,2.0048448 L0,11.1954773 C0,12.3137145 0.893231902,13.2003221 1.99508929,13.2003221 L10.1764706,13.2003221 L14.6153872,17.3165088 C15.022727,17.6942331 15.3529412,17.5585237 15.3529412,17.0099718 L15.3529412,13.2003221 Z" id="Rectangle-57-Copy" stroke="#B8BFC4" fill-opacity="0" fill="#D8D8D8"></path>
                    <g id="Rectangle-101-Copy-4-+-Rectangle-101-Copy-3" transform="translate(8.500000, 6.199997) scale(1, -1) translate(-8.500000, -6.199997) translate(4.000000, 3.699997)" fill="#B8BFC4">
                        <rect id="Rectangle-101-Copy-4" transform="translate(3.418671, 0.600000) scale(-1, 1) translate(-3.418671, -0.600000) " x="0" y="0" width="6.8373425" height="1.20000005"></rect>
                        <rect id="Rectangle-101-Copy-3" transform="translate(4.102405, 3.600000) scale(-1, 1) translate(-4.102405, -3.600000) " x="0" y="3" width="8.204811" height="1.20000005"></rect>
                    </g>
                </g>
            </g>
        </g>
    </g>
</svg>
