<?xml version="1.0" encoding="UTF-8" standalone="no"?>
<svg width="17px" height="18px" viewBox="0 0 17 18" version="1.1" xmlns="http://www.w3.org/2000/svg" xmlns:xlink="http://www.w3.org/1999/xlink" xmlns:sketch="http://www.bohemiancoding.com/sketch/ns">
    <!-- Generator: Sketch 3.3.3 (12081) - http://www.bohemiancoding.com/sketch -->
    <title>Rectangle 57 + Rectangle 35 Copy 4 + Rectangle 35 Copy 3 Copy Copy</title>
    <desc>Created with Sketch.</desc>
    <defs></defs>
    <g id="Page-1" stroke="none" stroke-width="1" fill="none" fill-rule="evenodd" sketch:type="MSPage">
        <g id="Artboard-2" sketch:type="MSArtboardGroup" transform="translate(-759.000000, -179.000000)">
            <g id="Rectangle-57-+-Rectangle-35-Copy-4-+-Rectangle-35-Copy-3-Copy-Copy" sketch:type="MSLayerGroup" transform="translate(759.000000, 179.000000)">
                <g id="Rectangle-57-Copy-+-Rectangle-101-Copy-4-+-Rectangle-101-Copy-3" sketch:type="MSShapeGroup">
                    <path d="M14.5,11.3404835 L14.9998938,11.3404835 C16.1099416,11.3404835 17,10.4444503 17,9.33913748 L17,2.00134599 C17,0.889868717 16.104522,0 14.9998938,0 L2.00010618,0 C0.890058413,0 0,0.896033122 0,2.00134599 L0,9.33913748 C0,10.4506148 0.895478039,11.3404835 2.00010618,11.3404835 L9.61111111,11.3404835 L13.7352486,14.8192224 C14.1576091,15.1754865 14.5,15.0194611 14.5,14.4576391 L14.5,11.3404835 Z" id="Rectangle-57-Copy" stroke="#FFFFFF" fill-opacity="0" fill="#D8D8D8"></path>
                    <g id="Rectangle-101-Copy-4-+-Rectangle-101-Copy-3" transform="translate(9.000000, 5.399997) scale(1, -1) translate(-9.000000, -5.399997) translate(4.000000, 2.899997)" fill="#FFFFFF">
                        <rect id="Rectangle-101-Copy-4" transform="translate(3.038819, 0.600000) scale(-1, 1) translate(-3.038819, -0.600000) " x="0" y="0" width="6.07763777" height="1.20000005"></rect>
                        <rect id="Rectangle-101-Copy-3" transform="translate(4.645000, 3.600000) scale(-1, 1) translate(-4.645000, -3.600000) " x="0" y="3" width="9.28999996" height="1.20000005"></rect>
                    </g>
                </g>
            </g>
        </g>
    </g>
</svg>
