<?xml version="1.0" encoding="UTF-8" standalone="no"?>
<svg width="19px" height="18px" viewBox="0 0 19 18" version="1.1" xmlns="http://www.w3.org/2000/svg" xmlns:xlink="http://www.w3.org/1999/xlink" xmlns:sketch="http://www.bohemiancoding.com/sketch/ns">
    <!-- Generator: Sketch 3.3.3 (12081) - http://www.bohemiancoding.com/sketch -->
    <title>Messaging Copy</title>
    <desc>Created with Sketch.</desc>
    <defs></defs>
    <g id="Page-1" stroke="none" stroke-width="1" fill="none" fill-rule="evenodd" sketch:type="MSPage">
        <g id="Ikony-Copy" sketch:type="MSArtboardGroup" transform="translate(-466.000000, -241.000000)">
            <g id="Group" sketch:type="MSLayerGroup" transform="translate(438.000000, 18.000000)">
                <g id="Messaging-Copy" transform="translate(28.337349, 223.000000)" sketch:type="MSShapeGroup">
                    <path d="M15.5379164,13.2003221 L16.2152337,13.2003221 C17.3134902,13.2003221 18.2168675,12.3027225 18.2168675,11.1954773 L18.2168675,2.0048448 C18.2168675,0.886607529 17.3207055,0 16.2152337,0 L2.00163374,0 C0.90337729,0 0,0.897599591 0,2.0048448 L0,11.1954773 C0,12.3137145 0.896161952,13.2003221 2.00163374,13.2003221 L10.2990787,13.2003221 L14.8033928,17.3274274 C15.2090589,17.6991216 15.5379164,17.5585237 15.5379164,17.0099718 L15.5379164,13.2003221 Z" id="Rectangle-57-Copy" stroke="#18CC63" fill-opacity="0" fill="#D8D8D8"></path>
                    <g id="Rectangle-101-Copy-4-+-Rectangle-101-Copy-3" transform="translate(8.602410, 6.199997) scale(1, -1) translate(-8.602410, -6.199997) translate(4.048193, 3.699997)" fill="#FFFFFF">
                        <rect id="Rectangle-101-Copy-4" transform="translate(3.459860, 0.600000) scale(-1, 1) translate(-3.459860, -0.600000) " x="0" y="0" width="6.91972012" height="1.20000005"></rect>
                        <rect id="Rectangle-101-Copy-3" transform="translate(4.151832, 3.600000) scale(-1, 1) translate(-4.151832, -3.600000) " x="0" y="3" width="8.30366414" height="1.20000005"></rect>
                    </g>
                </g>
            </g>
        </g>
    </g>
</svg>
