<?xml version="1.0" encoding="UTF-8" standalone="no"?>
<svg width="19px" height="15px" viewBox="-2 -2 19 15" version="1.1" xmlns="http://www.w3.org/2000/svg" xmlns:xlink="http://www.w3.org/1999/xlink" xmlns:sketch="http://www.bohemiancoding.com/sketch/ns">
    <!-- Generator: Sketch 3.3.3 (12081) - http://www.bohemiancoding.com/sketch -->
    <title>User_Profiles Copy</title>
    <desc>Created with Sketch.</desc>
    <defs></defs>
    <g id="Page-1" stroke="none" stroke-width="1" fill="none" fill-rule="evenodd" sketch:type="MSPage">
        <g id="Ikony-Copy" sketch:type="MSArtboardGroup" transform="translate(-468.000000, -163.000000)">
            <g id="Group" sketch:type="MSLayerGroup" transform="translate(438.000000, 18.000000)">
                <g id="User_Profiles-Copy" transform="translate(29.349398, 145.000000)" sketch:type="MSShapeGroup">
                    <rect id="Rectangle-101" fill="#18CC63" x="11.2494496" y="1" width="6.15086233" height="1.20000005" rx="0"></rect>
                    <rect id="Rectangle-101-Copy" fill="#18CC63" x="10.0192771" y="4" width="7.38103479" height="1.20000005" rx="0"></rect>
                    <rect id="Rectangle-101-Copy-2" fill="#18CC63" x="12.479622" y="7" width="4.92068986" height="1.20000005" rx="0"></rect>
                    <path d="M0.955194089,12.6 C0.846961782,12.1525321 0.78939759,11.6834194 0.78939759,11.2 C0.78939759,8.97605482 2.00769248,7.05489792 3.77285007,6.15100201 C3.0737979,5.50917719 2.6313253,4.55957344 2.6313253,3.5 C2.6313253,1.56700338 4.10393088,0 5.92048193,0 C7.73703297,0 9.20963855,1.56700338 9.20963855,3.5 C9.20963855,4.51377286 8.80459142,5.42687754 8.15731118,6.0660632 L8.15731118,6.0660632 C10.0158709,6.93025587 11.3146988,8.90372618 11.3146988,11.2 C11.3146988,11.6834194 11.2571346,12.1525321 11.1489023,12.6 L0.955194089,12.6 Z" id="Oval-22" stroke="#FFFFFF" stroke-linecap="round" stroke-linejoin="round" fill-opacity="0" fill="#D8D8D8"></path>
                </g>
            </g>
        </g>
    </g>
</svg>
