<?xml version="1.0" encoding="UTF-8" standalone="no"?>
<svg width="20px" height="15px" viewBox="-2 -2 20 15" version="1.1" xmlns="http://www.w3.org/2000/svg" xmlns:xlink="http://www.w3.org/1999/xlink" xmlns:sketch="http://www.bohemiancoding.com/sketch/ns">
    <!-- Generator: Sketch 3.3.3 (12081) - http://www.bohemiancoding.com/sketch -->
    <title>User_Profiles Copy 2</title>
    <desc>Created with Sketch.</desc>
    <defs></defs>
    <g id="Page-1" stroke="none" stroke-width="1" fill="none" fill-rule="evenodd" sketch:type="MSPage">
        <g id="Ikony-Copy" sketch:type="MSArtboardGroup" transform="translate(-392.000000, -163.000000)">
            <g id="Group" sketch:type="MSLayerGroup" transform="translate(384.000000, 49.000000)">
                <g id="User_Profiles-Copy-2" transform="translate(8.000000, 114.000000)" sketch:type="MSShapeGroup">
                    <rect id="Rectangle-101" fill="#FFFFFF" x="11.1155276" y="1" width="6.07763777" height="1.20000005" rx="0"></rect>
                    <rect id="Rectangle-101-Copy" fill="#FFFFFF" x="9.9" y="4" width="7.29316533" height="1.20000005" rx="0"></rect>
                    <rect id="Rectangle-101-Copy-2" fill="#FFFFFF" x="12.3310551" y="7" width="4.86211022" height="1.20000005" rx="0"></rect>
                    <path d="M0.943822731,12.6 C0.836878904,12.1525321 0.78,11.6834194 0.78,11.2 C0.78,8.97605482 1.98379138,7.05489792 3.72793519,6.15100201 C3.03720507,5.50917719 2.6,4.55957344 2.6,3.5 C2.6,1.56700338 4.05507456,0 5.85,0 C7.64492544,0 9.1,1.56700338 9.1,3.5 C9.1,4.51377286 8.69977485,5.42687754 8.06020034,6.0660632 L8.06020034,6.0660632 C9.89663431,6.93025587 11.18,8.90372618 11.18,11.2 C11.18,11.6834194 11.1231211,12.1525321 11.0161773,12.6 L0.943822731,12.6 Z" id="Oval-22" stroke="#FFFFFF" stroke-linecap="round" stroke-linejoin="round" fill-opacity="0" fill="#D8D8D8"></path>
                </g>
            </g>
        </g>
    </g>
</svg>
